<?xml version="1.0" encoding="UTF-8"?>
<!--
SPDX-FileCopyrightText: 2021 Romain Vigier <contact AT romainvigier.fr>
SPDX-License-Identifier: CC-BY-SA-4.0
-->
<svg width="16" height="16" version="1.1" viewBox="0 0 16 16" xmlns="http://www.w3.org/2000/svg">
 <path d="m2 0.99841c-1.108 0-2 0.892-2 2v10.001c0 1.108 0.892 2 2 2h12c1.108 0 2-0.892 2-2v-10.001c0-1.108-0.892-2-2-2zm1 2h10c0.554 0 1 0.446 1 1v8.0008c0 0.554-0.446 1-1 1h-10c-0.554 0-1-0.446-1-1v-8.0008c0-0.554 0.446-1 1-1z"/>
 <path d="m3.9766 5.5a0.5 0.5 0 0 0-0.33008 0.14648 0.5 0.5 0 0 0 0 0.70703l1.6465 1.6465-1.6465 1.6465a0.5 0.5 0 0 0 0 0.70703 0.5 0.5 0 0 0 0.70703 0l2-2a0.50005 0.50005 0 0 0 0-0.70703l-2-2a0.5 0.5 0 0 0-0.37695-0.14648z"/>
 <rect x="6" y="10" width="5" height="1" rx=".5"/>
</svg>
