<svg width="16" height="16" version="1.1" viewBox="0 0 16 16" xmlns="http://www.w3.org/2000/svg"><g fill="#808080"><path d="m8 0a8 8 0 0 0-8 8 8 8 0 0 0 8 8 8 8 0 0 0 8-8 8 8 0 0 0-8-8zm0 2a6 6 0 0 1 6 6 6 6 0 0 1-6 6 6 6 0 0 1-6-6 6 6 0 0 1 6-6z" stop-color="#000000" style="paint-order:normal"/><rect transform="rotate(-45)" x="-.49864" y="10.81" width="5.5" height="1" rx=".5" stop-color="#000000" style="paint-order:normal"/><rect transform="rotate(30)" x="6.9285" y="2.4294" width="4.5" height="1" rx=".5" ry=".4898" stop-color="#000000" style="paint-order:normal"/></g></svg>
