<svg width="16" height="16" version="1.1" viewBox="0 0 16 16" xmlns="http://www.w3.org/2000/svg"><g fill="#808080"><path d="m8 3-2 3h-2.9987c-1.108 0-2 0.892-2 2v4.9998c0 1.108 0.892 2 2 2h10.002c1.108 0 2-0.892 2-2v-4.9998c0-1.108-0.892-2-2-2h-3.003zm0 3 1.334 2h2.669c0.554 0 1 0.446 1 1v2.9998c0 0.554-0.446 1-1 1h-8.0017c-0.554 0-1-0.446-1-1v-2.9998c0-0.554 0.446-1 1-1h2.6647z" stop-color="#000000" style="paint-order:normal"/><rect y="1" width="16" height="2" rx="1.3878e-16" stop-color="#000000" style="paint-order:normal"/></g></svg>
